<svg xmlns="http://www.w3.org/2000/svg" width="1280" height="520" viewBox="0 0 1280 520" role="img" aria-labelledby="t d">
  <title id="t">OCI Landing Zones</title>
  <desc id="d">Banner for OCI Landing Zones: Terraform blueprints, Ansible orchestration, and architecture notes for repeatable OCI cloud foundations.</desc>

  <defs>
    <!-- Vertical left-bar gradient (top → bottom) -->
    <linearGradient id="vg" x1="0" y1="0" x2="0" y2="1">
      <stop offset="0%"   stop-color="#c74634"/>
      <stop offset="50%"  stop-color="#0891b2"/>
      <stop offset="100%" stop-color="#4f6bed"/>
    </linearGradient>
    <!-- Horizontal accent gradient (left → right) -->
    <linearGradient id="hg" x1="0" y1="0" x2="1" y2="0">
      <stop offset="0%"   stop-color="#c74634"/>
      <stop offset="50%"  stop-color="#0891b2"/>
      <stop offset="100%" stop-color="#4f6bed"/>
    </linearGradient>
    <!-- Subtle dot-grid background texture -->
    <pattern id="dots" width="20" height="20" patternUnits="userSpaceOnUse">
      <circle cx="1" cy="1" r="0.7" fill="#94a3b8" opacity="0.14"/>
    </pattern>
    <!-- Card drop shadow -->
    <filter id="sh" x="-5%" y="-5%" width="115%" height="125%">
      <feDropShadow dx="0" dy="4" stdDeviation="10"
                    flood-color="#0f172a" flood-opacity="0.08"/>
    </filter>
    <!-- Clip card background to rounded corners -->
    <clipPath id="cc">
      <rect width="720" height="432" rx="16"/>
    </clipPath>
    <!-- Clip Core Baseline box fill to rounded corners -->
    <clipPath id="cb">
      <rect width="664" height="86" rx="10"/>
    </clipPath>
    <style>
      .fa { font: 800 50px system-ui, -apple-system, "Segoe UI", sans-serif; }
      .fb { font: 600 20px system-ui, -apple-system, "Segoe UI", sans-serif; }
      .fc { font: 500 16px system-ui, -apple-system, "Segoe UI", sans-serif; }
      .fd { font: 600 15px system-ui, -apple-system, "Segoe UI", sans-serif; }
      .fe { font: 600 13px ui-monospace, "SFMono-Regular", Menlo, monospace; }
      .ff { font: 500 12px system-ui, -apple-system, "Segoe UI", sans-serif; }
      .fg { font: 700 14px ui-monospace, "SFMono-Regular", Menlo, monospace; }
    </style>
  </defs>

  <!-- ── White background with subtle dot texture ── -->
  <rect width="1280" height="520" fill="#ffffff"/>
  <rect width="1280" height="520" fill="url(#dots)"/>

  <!-- ── Left vertical accent bar ── -->
  <rect x="0" y="0" width="6" height="520" fill="url(#vg)"/>

  <!-- ══════════════════ LEFT PANEL ══════════════════ -->
  <g transform="translate(40,40)">

    <!-- Title -->
    <text y="56" class="fa" fill="#0f172a">OCI Landing Zones</text>
    <!-- Gradient underline beneath title -->
    <rect y="66" width="375" height="3" rx="1.5" fill="url(#hg)"/>

    <!-- Tagline -->
    <text y="98" class="fb" fill="#c74634">Blueprints · Automation · Architecture · CIS</text>

    <!-- Description -->
    <text y="124" class="fc" fill="#475569">Pick a blueprint, review the ASCII architecture, run a plan.</text>
    <text y="146" class="fc" fill="#475569">Modules and automation for OCI patterns that come up again.</text>

    <!-- Author / metadata -->
    <text y="172" class="ff" fill="#94a3b8">Leandro Michelino · ACE · Oracle</text>

    <!-- ── Tech-stack badges ── -->
    <rect y="188" width="118" height="32" rx="16" fill="#c74634"/>
    <text x="59"  y="209" class="fg" fill="#fff" text-anchor="middle">⬡ Terraform</text>

    <rect x="126" y="188" width="100" height="32" rx="16" fill="#0891b2"/>
    <text x="176" y="209" class="fg" fill="#fff" text-anchor="middle">⚙ Ansible</text>

    <rect x="234" y="188" width="78"  height="32" rx="16" fill="#4f6bed"/>
    <text x="273" y="209" class="fg" fill="#fff" text-anchor="middle">◈ OCI</text>

    <rect x="320" y="188" width="70"  height="32" rx="16" fill="#d97706"/>
    <text x="355" y="209" class="fg" fill="#fff" text-anchor="middle">✦ CIS</text>

    <!-- Divider -->
    <line x1="0" y1="236" x2="425" y2="236" stroke="#e2e8f0" stroke-width="1"/>

    <!-- ── Workflow ── -->
    <text y="254" class="ff" fill="#94a3b8" font-weight="700">WORKFLOW</text>

    <rect y="263" width="96"  height="28" rx="6" fill="#ecfeff" stroke="#0891b2" stroke-width="1.5"/>
    <text x="48"  y="282" class="fe" fill="#0e7490" text-anchor="middle">validate</text>

    <line x1="100" y1="277" x2="108" y2="277" stroke="#94a3b8" stroke-width="1.5"/>
    <polygon points="105,273 113,277 105,281" fill="#94a3b8"/>

    <rect x="116" y="263" width="72"  height="28" rx="6" fill="#eff6ff" stroke="#4f6bed" stroke-width="1.5"/>
    <text x="152" y="282" class="fe" fill="#3730a3" text-anchor="middle">plan</text>

    <line x1="192" y1="277" x2="200" y2="277" stroke="#94a3b8" stroke-width="1.5"/>
    <polygon points="197,273 205,277 197,281" fill="#94a3b8"/>

    <rect x="208" y="263" width="72"  height="28" rx="6" fill="#fee2e2" stroke="#c74634" stroke-width="1.5"/>
    <text x="244" y="282" class="fe" fill="#9b1c1c" text-anchor="middle">apply</text>

    <!-- Divider -->
    <line x1="0" y1="308" x2="425" y2="308" stroke="#e2e8f0" stroke-width="1"/>

    <!-- ── Blueprint families ── -->
    <text y="326" class="ff" fill="#94a3b8" font-weight="700">BLUEPRINT FAMILIES</text>

    <!-- Row 1 -->
    <rect y="334" width="52"  height="20" rx="10" fill="#f8fafc" stroke="#e2e8f0" stroke-width="1"/>
    <text x="26"  y="348" class="ff" fill="#475569" text-anchor="middle">core</text>

    <rect x="58"  y="334" width="44"  height="20" rx="10" fill="#f8fafc" stroke="#e2e8f0" stroke-width="1"/>
    <text x="80"  y="348" class="ff" fill="#475569" text-anchor="middle">CIS</text>

    <rect x="108" y="334" width="82"  height="20" rx="10" fill="#f8fafc" stroke="#e2e8f0" stroke-width="1"/>
    <text x="149" y="348" class="ff" fill="#475569" text-anchor="middle">networking</text>

    <rect x="196" y="334" width="106" height="20" rx="10" fill="#f8fafc" stroke="#e2e8f0" stroke-width="1"/>
    <text x="249" y="348" class="ff" fill="#475569" text-anchor="middle">operating-entity</text>

    <rect x="308" y="334" width="78"  height="20" rx="10" fill="#f8fafc" stroke="#e2e8f0" stroke-width="1"/>
    <text x="347" y="348" class="ff" fill="#475569" text-anchor="middle">extensions</text>

    <!-- Row 2 -->
    <rect y="360" width="62"  height="20" rx="10" fill="#f8fafc" stroke="#e2e8f0" stroke-width="1"/>
    <text x="31"  y="374" class="ff" fill="#475569" text-anchor="middle">identity</text>

    <rect x="68"  y="360" width="82"  height="20" rx="10" fill="#f8fafc" stroke="#e2e8f0" stroke-width="1"/>
    <text x="109" y="374" class="ff" fill="#475569" text-anchor="middle">compliance</text>

    <rect x="156" y="360" width="98"  height="20" rx="10" fill="#f8fafc" stroke="#e2e8f0" stroke-width="1"/>
    <text x="205" y="374" class="ff" fill="#475569" text-anchor="middle">data-platform</text>

    <rect x="260" y="360" width="54"  height="20" rx="10" fill="#f8fafc" stroke="#e2e8f0" stroke-width="1"/>
    <text x="287" y="374" class="ff" fill="#475569" text-anchor="middle">DR</text>

    <rect x="320" y="360" width="68"  height="20" rx="10" fill="#f8fafc" stroke="#e2e8f0" stroke-width="1"/>
    <text x="354" y="374" class="ff" fill="#475569" text-anchor="middle">industry</text>

  </g>

  <!-- ══════════════════ RIGHT PANEL — Architecture Card ══════════════════ -->
  <g transform="translate(524,30)" filter="url(#sh)">

    <!-- Card background + gradient top-bar, clipped to rounded rect -->
    <g clip-path="url(#cc)">
      <rect width="720" height="432" fill="#ffffff"/>
      <rect width="720" height="5"   fill="url(#hg)"/>
    </g>
    <!-- Card border -->
    <rect width="720" height="432" rx="16" fill="none" stroke="#e2e8f0" stroke-width="1.5"/>

    <!-- Card header row -->
    <text x="28" y="29" class="fd" fill="#0f172a">Architecture Stack</text>
    <text x="28" y="46" class="ff" fill="#94a3b8">OCI Tenancy · Any Region · Single or Multi-region</text>
    <line x1="28" y1="55" x2="692" y2="55" stroke="#e2e8f0" stroke-width="1"/>

    <!-- ─── Layer 0 : Blueprint entry (centred at x = 360) ─── -->
    <g transform="translate(260,67)">
      <rect width="200" height="44" rx="10" fill="#fee2e2" stroke="#fca5a5" stroke-width="1.5"/>
      <rect width="5"   height="44" rx="2"  fill="#c74634"/>
      <text x="100" y="20" class="fd" fill="#991b1b" text-anchor="middle">Blueprint</text>
      <text x="100" y="35" class="ff" fill="#b91c1c" text-anchor="middle">compartment · region · env</text>
    </g>
    <!-- Arrow ↓ Blueprint → Core -->
    <line x1="360" y1="111" x2="360" y2="129" stroke="#cbd5e1" stroke-width="1.5" stroke-dasharray="4,2"/>
    <polygon points="354,127 360,137 366,127" fill="#cbd5e1"/>

    <!-- ─── Layer 1 : Core Baseline ─── -->
    <g transform="translate(28,139)">
      <!-- Fills clipped to rounded box shape -->
      <g clip-path="url(#cb)">
        <rect width="664" height="86" fill="#fff7ed"/>
        <!-- Header band -->
        <rect width="664" height="28" fill="#fde8cc"/>
        <!-- Left accent bar -->
        <rect width="5"   height="86" fill="#ea580c"/>
      </g>
      <!-- Border drawn on top, unclipped -->
      <rect width="664" height="86" rx="10" fill="none" stroke="#fed7aa" stroke-width="1.5"/>
      <!-- Header / content separator -->
      <line x1="5" y1="28" x2="659" y2="28" stroke="#fed7aa" stroke-width="1"/>

      <!-- Title -->
      <text x="20" y="19" class="fd" fill="#9a3412" font-weight="700">Core Baseline</text>
      <!-- FOUNDATION LAYER badge (right side of header) -->
      <rect x="530" y="6" width="120" height="16" rx="8" fill="#ea580c" fill-opacity="0.14"/>
      <text x="590" y="18" class="ff" fill="#9a3412" text-anchor="middle" font-weight="700">FOUNDATION LAYER</text>

      <!-- GOVERN category pill + items row 1 -->
      <rect x="12" y="36" width="52" height="16" rx="8" fill="#ea580c" fill-opacity="0.14"/>
      <text x="38" y="48" class="ff" fill="#9a3412" text-anchor="middle" font-weight="700">GOVERN</text>
      <text x="72" y="48" class="ff" fill="#7c3d2a">compartments · IAM · tagging · logging · monitoring · budgets</text>

      <!-- PROTECT category pill + items row 2 -->
      <rect x="12" y="58" width="52" height="16" rx="8" fill="#ea580c" fill-opacity="0.14"/>
      <text x="38" y="70" class="ff" fill="#9a3412" text-anchor="middle" font-weight="700">PROTECT</text>
      <text x="72" y="70" class="ff" fill="#7c3d2a">Cloud Guard · Vault / KMS · Security Zones · VSS · Events</text>
    </g>
    <!-- Three arrows ↓ Core → pillars -->
    <line x1="128" y1="225" x2="128" y2="243" stroke="#cbd5e1" stroke-width="1.5" stroke-dasharray="4,2"/>
    <polygon points="122,241 128,251 134,241" fill="#cbd5e1"/>
    <line x1="360" y1="225" x2="360" y2="243" stroke="#cbd5e1" stroke-width="1.5" stroke-dasharray="4,2"/>
    <polygon points="354,241 360,251 366,241" fill="#cbd5e1"/>
    <line x1="592" y1="225" x2="592" y2="243" stroke="#cbd5e1" stroke-width="1.5" stroke-dasharray="4,2"/>
    <polygon points="586,241 592,251 598,241" fill="#cbd5e1"/>

    <!-- ─── Layer 2 : Three pillars ─── -->

    <!-- Networking -->
    <g transform="translate(28,255)">
      <rect width="200" height="76" rx="10" fill="#ecfeff" stroke="#a5f3fc" stroke-width="1.5"/>
      <rect width="5"   height="76" rx="2"  fill="#0891b2"/>
      <text x="100" y="25" class="fd" fill="#155e75" text-anchor="middle">Networking</text>
      <text x="100" y="43" class="ff" fill="#164e63" text-anchor="middle">VCN · DRG · Hub-Spoke</text>
      <text x="100" y="58" class="ff" fill="#164e63" text-anchor="middle">NVA · FastConnect · DNS</text>
    </g>

    <!-- Identity / Operating Entity -->
    <g transform="translate(260,255)">
      <rect width="200" height="76" rx="10" fill="#eff6ff" stroke="#bfdbfe" stroke-width="1.5"/>
      <rect width="5"   height="76" rx="2"  fill="#4f6bed"/>
      <text x="100" y="25" class="fd" fill="#1e3a8a" text-anchor="middle">Operating Entity</text>
      <text x="100" y="43" class="ff" fill="#1d4ed8" text-anchor="middle">workload vending</text>
      <text x="100" y="58" class="ff" fill="#1d4ed8" text-anchor="middle">BU · app-team scope</text>
    </g>

    <!-- Security / CIS -->
    <g transform="translate(492,255)">
      <rect width="200" height="76" rx="10" fill="#fefce8" stroke="#fde68a" stroke-width="1.5"/>
      <rect width="5"   height="76" rx="2"  fill="#d97706"/>
      <text x="100" y="25" class="fd" fill="#78350f" text-anchor="middle">Security / CIS</text>
      <text x="100" y="43" class="ff" fill="#92400e" text-anchor="middle">guardrails · scanning</text>
      <text x="100" y="58" class="ff" fill="#92400e" text-anchor="middle">CIS L1 / L2 · compliance</text>
    </g>

    <!-- Arrow ↓ pillars → Extensions -->
    <line x1="360" y1="331" x2="360" y2="349" stroke="#cbd5e1" stroke-width="1.5" stroke-dasharray="4,2"/>
    <polygon points="354,347 360,357 366,347" fill="#cbd5e1"/>

    <!-- ─── Layer 3 : Extensions ─── -->
    <g transform="translate(28,361)">
      <rect width="664" height="36" rx="10" fill="#f5f3ff" stroke="#ddd6fe" stroke-width="1.5"/>
      <rect width="5"   height="36" rx="2"  fill="#7c3aed"/>
      <text x="334" y="23" class="ff" fill="#4c1d95" text-anchor="middle" font-weight="700">Extensions: OKE · WAF · Exadata · API Gateway · Streaming · Full Stack DR</text>
    </g>

  </g>

  <!-- ── Bottom rule + accent stripe ── -->
  <line x1="0" y1="513" x2="1280" y2="513" stroke="#e2e8f0" stroke-width="1"/>
  <rect  y="513" width="1280" height="7" fill="url(#hg)"/>

</svg>
